<?xml version="1.0" standalone="no"?>
<!DOCTYPE svg PUBLIC "-//W3C//DTD SVG 20010904//EN"
 "http://www.w3.org/TR/2001/REC-SVG-20010904/DTD/svg10.dtd">
<svg version="1.0" xmlns="http://www.w3.org/2000/svg"
 width="900.000000pt" height="959.000000pt" viewBox="0 0 900.000000 959.000000"
 preserveAspectRatio="xMidYMid meet">

<g transform="translate(0.000000,959.000000) scale(0.100000,-0.100000)"
fill="#E8EDDF" stroke="none">
<path d="M3093 9555 c3 -19 22 -61 41 -93 31 -49 36 -66 36 -118 0 -78 -13
-114 -68 -192 -26 -37 -54 -94 -68 -139 -32 -100 -36 -105 -93 -147 -60 -42
-72 -59 -116 -167 -40 -94 -101 -166 -175 -204 -49 -25 -100 -93 -125 -169
-16 -47 -32 -161 -41 -291 -8 -117 -35 -175 -123 -263 -37 -37 -129 -109 -205
-161 -76 -52 -174 -129 -219 -170 -80 -76 -157 -165 -157 -182 0 -29 129 5
233 61 79 44 127 52 127 22 0 -17 -24 -91 -78 -242 -42 -118 -52 -289 -18
-335 25 -34 52 -1 127 153 106 219 180 324 328 467 375 361 359 332 390 708
14 170 26 191 218 391 150 157 158 164 165 139 4 -14 21 -134 38 -267 22 -168
46 -295 77 -421 33 -131 47 -208 50 -281 5 -99 5 -102 -30 -175 -19 -41 -72
-135 -117 -209 -74 -121 -220 -369 -378 -640 -47 -81 -76 -115 -199 -234 -141
-136 -188 -196 -195 -246 -4 -35 25 -28 74 16 21 19 42 34 47 34 5 0 11 -100
14 -222 4 -183 8 -238 26 -305 36 -145 77 -236 148 -330 36 -48 78 -114 94
-146 25 -54 26 -62 14 -95 -11 -32 -16 -37 -43 -36 -44 2 -112 56 -234 182
-153 161 -314 382 -370 511 -61 139 -123 366 -133 485 -11 128 33 289 105 384
42 55 52 89 24 78 -9 -3 -17 -6 -19 -6 -9 0 -100 -135 -124 -183 -20 -40 -41
-62 -92 -97 -36 -25 -86 -61 -110 -81 -24 -20 -79 -59 -121 -87 -42 -29 -80
-57 -83 -63 -4 -6 -21 -19 -38 -29 -30 -18 -31 -18 -68 0 -39 20 -50 43 -78
170 -25 111 -274 922 -331 1079 -69 188 -84 192 -75 20 l7 -134 -130 -271
c-71 -149 -132 -279 -136 -290 -22 -73 -89 -568 -101 -754 -16 -237 -36 -368
-66 -417 -13 -21 -18 -40 -13 -57 8 -34 18 -33 47 7 71 93 136 292 167 502 43
304 132 617 221 785 47 88 101 154 121 148 25 -7 59 -94 65 -164 6 -82 -15
-345 -62 -764 -41 -365 -62 -564 -116 -1100 -22 -223 -49 -493 -59 -600 -35
-350 -89 -901 -105 -1070 -10 -106 -21 -170 -29 -178 -19 -19 -74 11 -156 85
-36 32 -83 70 -105 84 -23 15 -130 99 -238 188 -238 195 -349 278 -402 302
-78 35 -71 -15 14 -105 52 -55 496 -441 676 -587 72 -59 80 -69 83 -103 4 -49
-10 -65 -157 -170 -163 -116 -213 -162 -209 -195 2 -17 10 -27 23 -29 19 -3
20 -11 21 -125 0 -149 13 -197 97 -361 51 -101 73 -132 141 -201 142 -143 277
-225 508 -309 207 -75 312 -87 566 -64 165 14 168 13 125 -75 -57 -112 -72
-226 -53 -392 11 -88 11 -108 0 -115 -7 -5 -45 -11 -84 -15 -39 -4 -95 -16
-124 -27 -73 -27 -192 -108 -244 -167 -37 -41 -178 -288 -178 -311 0 -18 43 5
90 47 111 100 214 45 128 -68 -68 -87 -161 -105 -272 -50 -73 36 -188 128
-219 176 -12 19 -27 37 -33 39 -24 9 -54 -26 -70 -82 -13 -47 -26 -67 -78
-115 -79 -75 -143 -107 -214 -107 -84 0 -122 33 -67 58 55 25 17 79 -63 89
-45 5 -53 3 -75 -19 -30 -30 -46 -79 -54 -169 -8 -89 23 -148 87 -162 45 -10
8362 -9 8402 1 112 29 186 171 176 337 -12 180 -161 333 -357 367 -151 26
-301 -55 -301 -164 0 -75 51 -193 92 -214 74 -38 194 1 224 72 14 35 11 90 -7
124 -7 13 -8 13 -13 0 -3 -8 -6 -24 -8 -35 -4 -26 -71 -59 -102 -51 -30 7 -49
56 -36 91 14 37 45 48 116 42 155 -12 238 -134 171 -252 -32 -57 -74 -75 -175
-75 -181 0 -307 43 -676 231 -149 75 -318 156 -376 179 -134 53 -216 97 -241
128 -38 49 -22 124 46 207 18 22 43 60 55 85 46 88 21 257 -48 323 -15 15 -54
36 -87 47 -76 26 -87 37 -134 135 -22 45 -51 89 -63 97 -13 8 -55 24 -94 36
-82 25 -120 51 -129 90 -11 51 -60 92 -110 92 -40 0 -50 8 -64 52 -12 37 -46
72 -101 105 l-30 17 0 102 c0 56 -7 137 -16 179 -9 42 -13 92 -10 110 16 85
165 86 836 5 312 -37 394 -65 711 -245 238 -135 299 -152 203 -54 -50 52 -102
88 -284 202 -152 95 -272 200 -486 424 -239 252 -381 439 -435 575 -72 180
-154 507 -185 739 -53 383 17 887 197 1431 145 438 304 794 479 1073 45 72
108 186 142 255 50 104 72 137 132 200 40 41 85 95 100 120 16 25 44 64 64 88
41 52 33 68 -23 43 -43 -20 -248 -243 -361 -394 -38 -51 -75 -89 -96 -99 -25
-12 -38 -26 -48 -58 -19 -59 -74 -117 -198 -208 -123 -92 -245 -209 -384 -369
-54 -62 -136 -142 -185 -180 -48 -37 -113 -92 -143 -120 -31 -29 -60 -50 -63
-46 -4 3 -7 52 -8 107 -1 128 -6 144 -49 165 -43 20 -60 52 -60 117 0 71 47
484 65 569 9 42 15 116 14 185 -1 63 2 180 6 259 6 118 5 143 -7 139 -42 -14
-106 -380 -162 -931 -17 -162 -31 -258 -41 -278 -10 -19 -32 -37 -58 -48 -101
-44 -128 -103 -108 -244 15 -103 43 -173 97 -235 l36 -43 -17 -67 c-20 -81
-34 -105 -143 -241 -100 -125 -123 -159 -192 -275 -59 -100 -175 -267 -320
-461 -53 -71 -143 -200 -200 -285 -57 -85 -124 -174 -148 -197 l-45 -42 10
-49 c7 -39 7 -49 -4 -49 -7 0 -13 3 -13 6 0 4 -11 56 -25 116 -64 281 -70 359
-69 855 2 441 3 460 29 625 83 528 173 782 575 1631 193 407 200 419 299 487
43 30 90 70 105 88 32 38 90 149 82 157 -21 21 -248 -156 -558 -436 -76 -68
-138 -128 -138 -133 0 -20 -294 -1 -430 27 -226 48 -378 192 -420 399 -16 76
-16 231 -1 315 36 196 91 286 329 532 114 118 131 149 86 156 -41 6 -118 -68
-344 -331 -94 -110 -205 -203 -379 -319 -75 -50 -152 -104 -171 -121 -51 -42
-539 -357 -555 -357 -44 0 -71 85 -85 264 -13 159 -45 356 -104 633 -80 372
-115 561 -122 645 -4 46 -17 121 -30 167 -29 100 -30 135 -5 183 18 36 18 36
-3 42 -12 3 -45 6 -75 6 l-54 0 6 -35z m1117 -1567 c0 -7 -110 -121 -244 -253
-134 -132 -267 -270 -296 -307 -77 -101 -110 -88 -110 46 0 106 7 117 126 182
58 32 196 122 307 200 111 79 205 143 210 144 4 0 7 -6 7 -12z m-740 -610 c11
-24 20 -61 20 -83 0 -50 -44 -130 -98 -176 -22 -19 -81 -80 -132 -136 -50 -57
-96 -101 -100 -98 -22 14 65 201 162 351 97 148 121 184 125 184 2 0 13 -19
23 -42z m1820 -156 c0 -12 -74 -80 -195 -178 -142 -115 -271 -230 -470 -418
-88 -84 -270 -247 -405 -362 -135 -116 -267 -232 -295 -257 -27 -26 -53 -47
-58 -47 -14 0 -29 55 -23 90 3 19 14 77 26 129 26 120 26 196 0 261 -11 28
-20 60 -20 72 0 41 41 94 98 129 32 18 131 83 222 144 259 175 526 318 661
356 81 22 394 87 427 88 17 1 32 -3 32 -7z m-3900 -628 c6 -14 24 -82 42 -152
17 -70 50 -174 73 -232 23 -58 45 -117 49 -133 10 -41 -10 -144 -53 -275 -21
-64 -43 -146 -50 -182 -28 -146 -105 -348 -155 -407 -40 -48 -63 -44 -72 13
-12 80 34 577 76 819 10 61 22 175 25 255 6 139 19 265 31 303 8 25 23 21 34
-9z m558 -341 c-1 -5 -35 -55 -74 -113 -39 -58 -86 -131 -103 -162 -34 -61
-56 -71 -85 -43 -22 22 -30 78 -17 118 16 48 63 92 154 145 43 25 80 49 83 54
6 10 47 11 42 1z m5062 -19 c0 -10 -150 -196 -218 -269 -36 -38 -84 -90 -107
-115 -55 -59 -176 -209 -215 -265 -33 -49 -62 -58 -80 -26 -28 54 3 144 72
206 79 71 112 100 148 126 19 14 49 39 65 55 17 16 50 46 75 67 25 22 89 81
142 133 86 84 118 107 118 88z m-3405 -189 c80 -81 106 -113 111 -140 14 -78
-20 -129 -144 -209 -83 -53 -120 -87 -226 -205 -176 -195 -299 -301 -323 -278
-11 11 13 154 37 228 41 121 108 244 220 404 62 88 135 193 162 233 27 39 51
72 54 72 2 0 51 -47 109 -105z m-1991 -199 c13 -25 16 -43 11 -67 -18 -81
-104 -204 -127 -181 -8 8 0 45 26 134 49 160 58 172 90 114z m4581 -466 c4 -6
3 -41 -1 -78 -7 -65 -8 -68 -61 -117 -30 -27 -105 -117 -168 -200 -114 -152
-195 -245 -215 -245 -14 0 11 48 64 124 23 33 75 110 116 170 76 111 200 292
229 333 18 25 27 28 36 13z m-3505 -499 c0 -19 -166 -185 -242 -242 -42 -33
-96 -81 -119 -109 -23 -27 -46 -50 -50 -50 -10 0 -29 66 -29 102 0 37 -47 78
-117 102 -45 17 -60 27 -67 49 -15 42 1 59 80 86 56 19 102 25 244 32 96 5
200 15 230 23 70 18 70 18 70 7z m-752 -193 c23 -23 14 -58 -22 -79 -43 -25
-71 -99 -63 -161 6 -48 49 -105 100 -133 20 -11 37 -28 37 -37 0 -31 -18 -28
-47 9 -21 26 -35 34 -47 30 -16 -6 -16 -9 -2 -29 30 -43 21 -83 -32 -136 -27
-26 -56 -53 -65 -60 -23 -18 -21 -27 10 -56 25 -24 26 -27 14 -67 -9 -29 -29
-57 -68 -93 -31 -28 -75 -68 -97 -89 -53 -49 -81 -47 -110 8 -18 35 -21 56
-19 160 3 253 83 427 310 669 39 42 75 76 80 76 5 0 14 -5 21 -12z m-714 -328
c56 -257 156 -507 238 -593 38 -40 39 -44 29 -77 -14 -46 -47 -78 -163 -154
-51 -33 -98 -72 -105 -85 -6 -13 -19 -28 -27 -33 -9 -5 -16 -18 -16 -29 0 -31
36 -94 71 -124 27 -22 35 -25 43 -13 6 8 27 20 46 28 19 8 75 33 124 57 100
48 130 55 101 23 -10 -11 -60 -36 -112 -56 -52 -20 -100 -43 -108 -50 -7 -8
-18 -14 -23 -14 -6 0 -46 -27 -90 -59 -87 -64 -122 -85 -164 -95 -33 -8 -32
-14 -18 154 72 860 103 1193 117 1270 l6 35 12 -30 c7 -16 25 -86 39 -155z
m3981 -521 c34 -147 156 -421 262 -586 50 -79 84 -119 137 -164 39 -32 103
-101 142 -151 43 -57 89 -105 119 -125 47 -31 73 -67 57 -77 -5 -3 -38 18 -75
46 -48 35 -87 78 -136 146 -41 59 -106 131 -162 183 -62 56 -102 103 -118 135
-14 27 -44 78 -67 114 -90 141 -135 267 -200 558 -3 16 -1 23 7 20 7 -2 22
-47 34 -99z m-1813 -611 c19 -29 50 -91 68 -138 49 -124 114 -238 167 -292 42
-42 49 -46 63 -33 11 10 24 12 45 6 33 -8 32 -4 19 -113 -3 -32 -10 -58 -14
-58 -41 0 -203 244 -271 410 -17 41 -50 109 -74 150 -24 41 -46 85 -50 98 -11
39 12 24 47 -30z m-1529 -120 c-5 -46 -8 -166 -8 -268 0 -178 1 -190 34 -313
45 -172 27 -185 -39 -28 -48 113 -63 211 -58 381 4 123 9 158 32 228 15 45 31
82 37 82 6 0 7 -30 2 -82z m2749 -210 c36 -28 116 -164 210 -358 55 -113 120
-246 144 -297 52 -106 60 -146 29 -151 -33 -5 -71 46 -113 153 -68 169 -196
445 -250 540 -61 105 -69 151 -20 113z m9 -261 c97 -192 240 -498 271 -580 8
-23 7 -32 -5 -44 -8 -9 -22 -13 -30 -10 -20 7 -64 103 -154 331 -41 104 -85
205 -98 226 -76 121 -154 308 -138 333 10 17 41 -34 154 -256z m-345 187 c0
-27 19 -115 42 -196 45 -156 61 -249 62 -338 0 -31 14 -111 30 -179 28 -115
29 -160 4 -143 -35 22 -64 141 -89 362 -17 152 -17 153 -51 306 -26 123 -33
249 -11 241 7 -2 12 -23 13 -53z m530 36 c46 -29 79 -88 169 -299 43 -100 100
-220 127 -267 52 -92 56 -105 32 -125 -13 -11 -20 -11 -41 1 -20 12 -48 66
-122 240 -106 245 -116 266 -167 346 -40 62 -57 102 -48 115 7 13 12 12 50
-11z m-611 -1 c4 -5 11 -56 16 -112 13 -151 64 -445 94 -537 25 -81 30 -129
16 -163 -6 -16 -25 -5 -139 78 -190 139 -178 117 -185 336 -3 101 -11 224 -17
272 -16 124 -7 133 137 136 41 0 75 -4 78 -10z m766 0 c53 -28 310 -508 313
-584 3 -86 -79 -36 -114 70 -13 39 -53 112 -104 187 -95 140 -127 200 -150
277 -9 30 -16 56 -16 58 0 8 53 2 71 -8z m-477 -229 c52 -118 128 -287 170
-374 86 -179 141 -319 151 -386 4 -25 22 -76 42 -113 47 -93 40 -107 -34 -65
-67 37 -202 133 -221 157 -22 28 -51 140 -82 321 -16 96 -52 270 -80 385 -55
230 -70 317 -51 300 6 -6 53 -107 105 -225z m643 195 c33 -23 115 -163 145
-248 16 -43 41 -97 57 -120 45 -66 63 -106 56 -127 -15 -46 -58 -4 -98 95 -18
44 -51 107 -74 141 -39 57 -83 133 -126 216 -27 53 -7 76 40 43z m-1190 -206
c6 -190 1 -263 -20 -256 -22 7 -33 121 -27 279 4 85 10 160 14 167 19 30 27
-16 33 -190z m1428 157 c50 -14 112 -34 140 -46 l50 -21 -60 -32 c-33 -18 -71
-40 -85 -50 -13 -9 -35 -17 -47 -17 -36 0 -91 56 -107 108 -8 26 -17 55 -21
65 -10 24 19 22 130 -7z m-1535 -164 c-1 -126 -3 -144 -14 -129 -15 19 -22
216 -10 263 14 57 24 2 24 -134z m-728 -58 c125 -24 547 -187 593 -230 30 -28
34 -64 6 -64 -10 0 -106 27 -212 60 -244 76 -394 116 -488 130 -74 11 -169 48
-191 75 -18 21 -6 43 27 48 43 8 174 -2 265 -19z m-535 -5 c31 -12 43 -26 43
-51 0 -14 -9 -18 -42 -18 -63 0 -207 -25 -255 -45 -23 -9 -54 -15 -70 -13
l-28 4 29 12 c16 7 58 29 95 50 124 70 171 83 228 61z m3037 -12 c3 -13 1 -40
-5 -60 -11 -42 -77 -117 -103 -117 -24 0 -65 50 -66 81 0 30 43 75 98 101 50
24 69 22 76 -5z m745 -36 c19 -12 40 -188 41 -337 0 -137 -9 -154 -96 -173
-70 -16 -219 -91 -296 -150 -86 -65 -83 -75 -57 219 10 113 47 309 68 362 12
33 57 58 131 74 66 15 189 17 209 5z m-4876 -170 c93 -40 136 -71 296 -216
112 -101 175 -149 263 -199 18 -10 28 -21 21 -23 -21 -8 -189 84 -437 240 -49
31 -123 70 -165 88 -89 37 -139 71 -152 106 -9 24 -12 25 -65 20 -62 -6 -65 2
-7 14 75 15 163 5 246 -30z m-363 -18 c-76 -40 -83 -57 -40 -95 19 -16 118
-85 220 -153 102 -67 246 -169 320 -227 74 -57 187 -139 251 -181 119 -78 143
-102 111 -115 -9 -3 -127 -7 -262 -7 -279 0 -275 -1 -485 100 -288 139 -394
327 -301 531 48 104 94 151 164 165 69 13 74 9 22 -18z m1422 -59 c4 -27 4
-52 -1 -57 -11 -11 -108 -29 -155 -29 -62 0 -108 45 -92 88 5 13 14 9 47 -18
79 -64 74 -63 113 -31 24 19 36 36 36 54 0 27 18 51 35 46 5 -2 13 -26 17 -53z
m216 46 c7 0 12 -14 12 -35 0 -28 -4 -36 -24 -41 -33 -8 -42 -1 -50 37 -8 39
0 52 28 45 11 -3 27 -6 34 -6z m202 -28 c23 -11 36 -25 38 -41 5 -33 -8 -41
-51 -34 -36 5 -37 7 -37 49 0 49 1 50 50 26z m224 -55 c25 -18 18 -71 -9 -75
-30 -3 -45 11 -52 51 -5 34 -4 37 19 37 13 0 32 -6 42 -13z m206 -90 c0 -33
-23 -62 -44 -54 -11 4 -16 18 -16 42 0 32 2 35 30 35 25 0 30 -4 30 -23z
m2154 -78 c20 -33 36 -67 36 -75 0 -26 -28 -15 -59 23 -24 29 -31 47 -31 81 0
24 4 41 9 38 4 -3 25 -33 45 -67z m-1982 15 c4 -32 2 -35 -21 -32 -20 2 -27 9
-29 32 -4 30 12 48 34 39 6 -2 14 -20 16 -39z m-1187 -14 c17 -18 17 -21 -3
-61 -18 -36 -26 -43 -57 -46 -31 -3 -43 3 -96 48 -32 29 -57 54 -54 57 3 3 23
-3 45 -13 33 -15 45 -16 65 -7 14 7 28 19 31 27 9 21 48 19 69 -5z m1839 -30
c73 -42 118 -89 146 -156 29 -72 20 -110 -25 -107 -46 4 -101 67 -160 186 -61
122 -57 131 39 77z m-454 -15 c0 -37 -9 -42 -41 -25 -32 18 -16 60 23 60 14 0
18 -8 18 -35z m1684 -36 l30 -62 -23 -18 c-29 -24 -38 -18 -67 45 -33 70 -32
96 4 96 23 0 31 -9 56 -61z m-2242 34 c20 -24 161 -302 194 -383 23 -57 46
-137 60 -207 9 -48 48 -77 119 -91 138 -26 470 -179 470 -217 0 -19 -75 -73
-105 -74 -8 -1 -71 28 -140 63 -139 71 -218 105 -425 178 -183 65 -308 94
-458 108 -153 15 -169 18 -164 33 5 17 64 35 158 47 105 13 178 2 331 -51 70
-24 130 -39 150 -37 30 3 33 6 30 33 -2 17 -40 107 -86 200 -121 248 -185 415
-159 415 6 0 17 -8 25 -17z m3398 -33 c19 -24 30 -48 28 -62 -4 -32 -42 -36
-62 -6 -17 24 -22 108 -7 108 5 0 24 -18 41 -40z m-2663 7 c1 -2 5 -20 7 -40
5 -36 4 -37 -29 -37 -31 0 -35 4 -44 37 -6 20 -8 40 -4 46 5 8 60 3 70 -6z
m-471 -61 c49 -57 104 -176 164 -354 47 -142 60 -202 43 -202 -22 1 -58 31
-83 68 -28 41 -54 109 -103 268 -30 95 -77 197 -108 236 -54 65 30 51 87 -16z
m1866 -44 l21 -45 -22 -18 c-34 -28 -70 -9 -102 52 -15 31 -17 43 -8 66 5 15
16 31 22 35 17 10 63 -37 89 -90z m-2214 48 c31 -47 26 -76 -13 -72 -58 6 -98
54 -81 98 11 29 68 13 94 -26z m2054 -84 c36 -60 36 -119 1 -124 -17 -2 -30 9
-57 49 -34 51 -37 65 -20 117 9 28 48 7 76 -42z m-1473 -36 c38 -58 64 -122
114 -285 14 -44 37 -111 51 -148 27 -71 27 -91 -1 -80 -21 8 -153 280 -191
396 -32 94 -42 177 -22 177 6 0 28 -27 49 -60z m2688 30 c16 -32 2 -55 -46
-80 -22 -11 -92 -58 -156 -105 -83 -61 -125 -85 -146 -85 -40 0 -36 15 11 41
22 13 40 26 40 31 0 25 -41 14 -140 -36 -61 -30 -129 -60 -153 -67 -167 -45
-249 -82 -412 -184 -55 -35 -142 -84 -193 -110 l-94 -48 -26 26 c-33 34 -25
42 62 56 83 14 116 30 178 86 33 30 67 48 120 65 41 12 115 48 167 81 52 32
142 82 199 111 98 50 108 53 180 53 96 1 95 0 336 168 45 31 56 31 73 -3z
m-2484 -21 c74 -25 337 -158 337 -170 0 -16 -24 -10 -115 27 -103 41 -178 78
-261 128 -67 41 -53 46 39 15z m587 -15 c13 -33 13 -121 0 -129 -20 -12 -68
109 -56 141 9 24 46 16 56 -12z m528 4 c8 -11 42 -116 42 -132 0 -15 -46 -3
-77 20 -35 27 -44 66 -23 105 12 22 43 25 58 7z m-1878 -29 c74 -33 101 -69
63 -83 -9 -4 -54 -4 -100 0 l-83 7 0 38 c0 61 41 74 120 38z m804 -65 c57 -25
142 -68 188 -95 131 -78 278 -147 338 -159 83 -17 82 -17 70 -40 -18 -33 -107
-27 -230 16 -109 38 -383 170 -438 211 -50 38 -82 113 -47 113 8 0 62 -21 119
-46z m1811 -2 c0 -7 -19 -23 -41 -37 -41 -24 -42 -24 -59 -5 -16 18 -15 19 22
39 41 22 78 24 78 3z m-1037 -37 c28 -20 52 -40 52 -45 0 -14 -29 -27 -77 -35
-40 -6 -44 -5 -53 20 -5 14 -10 42 -10 61 0 45 19 45 88 -1z m1932 29 c0 -11
-62 -95 -88 -120 -36 -34 -198 -144 -211 -144 -6 0 -11 11 -11 24 0 25 100
126 170 171 19 12 46 34 59 49 15 16 35 26 53 26 15 0 28 -3 28 -6z m330 -55
c117 -52 119 -111 5 -163 -36 -16 -38 -19 -22 -31 9 -7 41 -15 71 -19 71 -8
184 -43 219 -68 86 -61 72 -212 -23 -245 -19 -7 -63 -12 -96 -12 -34 -1 -79
-8 -99 -17 -37 -15 -39 -15 -61 8 -13 13 -45 61 -71 107 -27 47 -54 86 -60 88
-7 3 -21 -14 -33 -37 -12 -23 -26 -40 -32 -38 -49 17 -75 148 -44 222 16 37
22 117 10 129 -10 9 -68 -30 -165 -113 -93 -80 -131 -96 -143 -63 -5 12 15 37
75 92 94 87 173 149 209 164 77 31 184 29 260 -4z m-1375 -1 c12 -11 -33 -48
-51 -41 -19 7 -26 34 -13 49 12 15 45 11 64 -8z m-2420 -29 c44 -21 125 -90
125 -108 0 -17 -43 -23 -96 -12 -230 46 -264 57 -264 85 0 14 37 51 60 59 27
10 134 -5 175 -24z m2284 -18 c18 -12 5 -48 -25 -67 -30 -20 -54 -12 -54 18 0
37 11 47 60 57 3 0 11 -3 19 -8z m-151 -73 c20 -20 14 -48 -14 -60 -29 -13
-44 0 -44 39 0 19 8 25 41 32 3 0 10 -4 17 -11z m-1319 -19 c135 -43 370 -148
385 -171 8 -13 5 -22 -13 -41 l-22 -25 -60 18 c-72 22 -164 64 -286 132 -83
46 -93 54 -93 80 0 34 5 34 89 7z m963 -5 c5 -3 3 -13 -4 -22 -17 -21 -173
-92 -201 -92 -32 1 -109 38 -105 51 2 6 45 22 96 34 50 13 99 29 109 34 17 11
85 7 105 -5z m217 -48 c7 -8 11 -27 9 -43 -2 -22 -8 -28 -27 -28 -33 0 -48 26
-33 59 13 29 33 33 51 12z m-3004 -56 c19 -31 -111 -122 -151 -106 -45 17 46
115 108 116 20 0 40 -5 43 -10z m2874 -14 c9 -11 3 -21 -31 -51 -40 -34 -46
-36 -88 -30 -94 14 -103 40 -21 62 29 7 60 17 69 23 25 14 58 12 71 -4z m1133
-37 c34 -17 121 -71 194 -120 73 -48 197 -125 276 -170 79 -45 204 -118 278
-164 135 -82 403 -231 535 -298 39 -20 63 -36 54 -37 -29 0 -123 44 -244 116
-66 39 -203 117 -305 174 -102 57 -250 144 -330 193 -80 50 -206 122 -280 161
-74 40 -155 86 -179 104 -46 34 -86 40 -124 21 -12 -7 -60 -40 -107 -74 -86
-63 -167 -108 -261 -146 -29 -11 -68 -33 -88 -49 -36 -31 -65 -37 -91 -20 -19
12 -22 9 100 70 123 62 404 221 440 250 34 27 61 25 132 -11z m-3343 -4 c256
-38 573 -123 737 -200 43 -20 113 -50 155 -66 42 -16 87 -41 100 -55 l24 -26
-34 -29 c-60 -50 -73 -48 -248 34 -286 135 -513 198 -843 232 -85 9 -157 18
-161 21 -13 8 10 68 32 87 27 22 95 22 238 2z m1286 -41 c49 -25 96 -50 102
-56 28 -22 -36 -78 -89 -78 -13 0 -36 8 -53 17 -16 9 -52 28 -79 42 -49 26
-49 26 -52 80 l-3 53 42 -6 c23 -4 82 -27 132 -52z m487 29 c9 -10 21 -29 28
-42 14 -26 17 -27 -51 3 l-37 15 -133 -85 c-73 -47 -166 -112 -208 -145 -51
-39 -79 -55 -86 -48 -6 6 -6 12 0 17 6 4 77 52 160 106 82 54 176 120 209 147
65 52 93 60 118 32z m-2407 -73 c16 -26 -17 -81 -68 -114 -29 -18 -58 -40 -66
-49 -36 -44 -57 13 -27 71 36 69 139 128 161 92z m599 -105 c180 -19 465 -90
698 -174 92 -33 175 -64 184 -69 14 -8 6 -17 -46 -51 -35 -22 -71 -41 -80 -41
-9 0 -61 18 -116 41 -302 123 -595 196 -737 182 -99 -9 -136 1 -153 42 -18 43
-18 50 2 69 20 20 65 20 248 1z m-570 -67 c34 -48 7 -99 -82 -157 -59 -37 -79
-39 -93 -7 -16 34 19 104 74 151 47 40 79 44 101 13z m619 -123 c202 -22 409
-78 565 -153 50 -24 57 -31 57 -57 0 -27 -4 -30 -33 -33 -21 -2 -71 12 -137
37 -214 84 -424 134 -612 147 l-103 6 0 27 c0 15 3 31 7 34 11 11 105 8 256
-8z m1808 -25 c64 -19 199 -102 199 -120 0 -12 -23 -13 -35 -1 -27 24 -210
111 -236 111 -29 0 -99 -30 -151 -64 -48 -32 -30 1 21 38 84 62 107 66 202 36z
m734 6 c21 -15 14 -46 -10 -46 -9 0 -46 -18 -82 -40 -90 -54 -214 -78 -201
-38 5 13 10 16 83 48 28 12 69 37 90 55 43 37 88 45 120 21z m-1500 -26 c3 -5
2 -10 -2 -10 -5 0 -27 -24 -50 -53 -29 -38 -59 -62 -100 -82 -102 -50 -118
-59 -143 -82 -26 -24 -45 -29 -54 -14 -8 12 29 42 104 85 36 21 72 42 80 47 8
5 24 13 35 18 27 13 95 77 95 90 0 14 27 14 35 1z m-1619 -35 c19 -47 18 -72
-7 -111 -17 -28 -67 -64 -89 -64 -16 0 -60 78 -60 105 0 39 69 105 111 105 25
0 33 -6 45 -35z m-371 -82 c10 -21 28 -50 38 -65 15 -23 16 -28 3 -28 -8 0
-17 8 -20 18 -10 29 -89 72 -134 72 -82 0 -229 -100 -317 -216 -23 -31 -18 4
6 43 30 48 60 76 102 97 20 9 39 21 43 27 3 6 35 24 70 40 35 16 66 34 69 39
3 6 32 10 63 10 56 0 58 -1 77 -37z m930 17 c213 -18 277 -38 301 -97 9 -21
23 -46 32 -56 28 -32 4 -29 -100 11 -76 30 -135 45 -223 57 -146 20 -185 35
-185 68 0 31 10 40 35 32 11 -3 74 -10 140 -15z m3818 -105 c70 -35 159 -85
197 -110 39 -25 75 -45 80 -45 6 0 10 -7 10 -15 0 -15 -11 -19 -40 -15 -20 2
-188 96 -280 156 -41 27 -88 54 -104 60 -16 6 -32 16 -34 22 -9 27 51 9 171
-53z m-1648 44 c12 -19 -33 -55 -104 -82 -38 -15 -74 -27 -82 -27 -15 0 150
117 168 119 6 1 15 -4 18 -10z m-2675 -55 c14 -36 12 -97 -3 -118 -28 -38
-111 18 -100 67 8 30 53 77 75 77 11 0 23 -11 28 -26z m512 -28 c40 -8 116
-28 168 -44 52 -17 110 -33 128 -37 26 -5 32 -11 30 -27 -5 -36 -31 -44 -95
-29 -32 7 -108 23 -169 36 -114 24 -168 44 -177 68 -6 17 3 32 23 40 8 3 16 6
17 6 1 1 34 -5 75 -13z"/>
</g>
</svg>
